<svg xmlns="http://www.w3.org/2000/svg" viewBox="0 0 32 32" fill="none">
  <path d="M16 2L4 7v9c0 6.627 5.148 11.373 12 13 6.852-1.627 12-6.373 12-13V7L16 2z" fill="#e8e8e8"/>
  <path d="M11 10h5.2c1.16 0 2.08.28 2.72.84.64.56.96 1.32.96 2.28 0 .72-.18 1.32-.54 1.8-.22.3-.52.54-.88.72.52.18.94.48 1.26.9.42.54.63 1.2.63 1.98 0 1.08-.36 1.94-1.08 2.56-.72.62-1.72.92-3 .92H11V10zm2.2 4.8h2.7c.56 0 .98-.12 1.28-.36.3-.24.45-.58.45-1.02 0-.44-.15-.78-.45-1.02-.3-.24-.72-.36-1.28-.36h-2.7v2.76zm0 5.16h3c.62 0 1.1-.14 1.42-.42.32-.28.48-.68.48-1.18 0-.5-.16-.88-.48-1.16-.32-.28-.8-.42-1.42-.42h-3v3.18z" fill="#030305"/>
  <line x1="6" y1="16" x2="26" y2="16" stroke="#030305" stroke-width="1.2" stroke-opacity="0.35"/>
</svg>
